# xmcd CD database file
#
# Track frame offsets:
#	182
#	14232
#	31037
#	44275
#	60547
#	74055
#	86755
#	100705
#	114507
#	125737
#	138840
#	153672
#	164365
#	180712
#	194162
#	207840
#	217622
#
# Disc length: 3059 seconds
#
# Revision: 0
# Processed by: cddbd v1.4PL0 Copyright (c) Steve Scherf et al.
# Submitted via: CDex 1.50beta10
#
DISCID=f70bf111
DTITLE=Chicago All Stars - Featuring Willie Dixon, Walter Horton, Sunnyland Slim, Clifton James and Johnny Shines
DYEAR=1991
DGENRE=Blues
TTITLE0=29 Ways
TTITLE1=I Just Want To Make Love To You
TTITLE2=Crazy For My Baby
TTITLE3=My Babe
TTITLE4=Every Time I Get To Drinkin'
TTITLE5=Rock This House
TTITLE6=Sunnyland Boogie
TTITLE7=Won't Do That No More
TTITLE8=It's You Baby
TTITLE9=She's Got A Thing Going On
TTITLE10=Worried Life Blues
TTITLE11=Fat Mama
TTITLE12=High Road Blues
TTITLE13=Hello Central
TTITLE14=Hard Hearted Woman
TTITLE15=Everbodys Fishin'
TTITLE16=Baby I Need Your Love
EXTD=YEAR: 1991
EXTT0=
EXTT1=
EXTT2=
EXTT3=
EXTT4=
EXTT5=
EXTT6=
EXTT7=
EXTT8=
EXTT9=
EXTT10=
EXTT11=
EXTT12=
EXTT13=
EXTT14=
EXTT15=
EXTT16=
PLAYORDER=
